<svg width="335" height="335" viewBox="0 0 335 335" fill="none" xmlns="http://www.w3.org/2000/svg">
<g filter="url(#filter0_g_135_2833)">
<path d="M202.999 18C222.408 18 240.935 40.0436 240.935 68.2872C240.935 104.137 224.968 118.195 199.47 130.444C182.587 138.554 174.531 144.631 171.01 147.82C169.937 148.793 167.208 148.824 166.119 147.87C162.571 144.765 154.516 138.806 137.714 130.444C112.193 117.741 96.249 104.137 96.249 68.2872C96.2491 40.0436 114.776 18 134.185 18C147.356 18 156.746 22.3402 162.354 26.0363C165.929 28.3928 171.255 28.3928 174.83 26.0363C180.438 22.3402 189.828 18 202.999 18Z" fill="#37BC69"/>
<path d="M202.999 18C222.408 18 240.935 40.0436 240.935 68.2872C240.935 104.137 224.968 118.195 199.47 130.444C182.587 138.554 174.531 144.631 171.01 147.82C169.937 148.793 167.208 148.824 166.119 147.87C162.571 144.765 154.516 138.806 137.714 130.444C112.193 117.741 96.249 104.137 96.249 68.2872C96.2491 40.0436 114.776 18 134.185 18C147.356 18 156.746 22.3402 162.354 26.0363C165.929 28.3928 171.255 28.3928 174.83 26.0363C180.438 22.3402 189.828 18 202.999 18Z" fill="url(#paint0_linear_135_2833)"/>
<path d="M202.999 18C222.408 18 240.935 40.0436 240.935 68.2872C240.935 104.137 224.968 118.195 199.47 130.444C182.587 138.554 174.531 144.631 171.01 147.82C169.937 148.793 167.208 148.824 166.119 147.87C162.571 144.765 154.516 138.806 137.714 130.444C112.193 117.741 96.249 104.137 96.249 68.2872C96.2491 40.0436 114.776 18 134.185 18C147.356 18 156.746 22.3402 162.354 26.0363C165.929 28.3928 171.255 28.3928 174.83 26.0363C180.438 22.3402 189.828 18 202.999 18Z" fill="url(#paint1_linear_135_2833)"/>
<path d="M202.999 18C222.408 18 240.935 40.0436 240.935 68.2872C240.935 104.137 224.968 118.195 199.47 130.444C182.587 138.554 174.531 144.631 171.01 147.82C169.937 148.793 167.208 148.824 166.119 147.87C162.571 144.765 154.516 138.806 137.714 130.444C112.193 117.741 96.249 104.137 96.249 68.2872C96.2491 40.0436 114.776 18 134.185 18C147.356 18 156.746 22.3402 162.354 26.0363C165.929 28.3928 171.255 28.3928 174.83 26.0363C180.438 22.3402 189.828 18 202.999 18Z" fill="url(#paint2_radial_135_2833)"/>
<path d="M202.999 18C222.408 18 240.935 40.0436 240.935 68.2872C240.935 104.137 224.968 118.195 199.47 130.444C182.587 138.554 174.531 144.631 171.01 147.82C169.937 148.793 167.208 148.824 166.119 147.87C162.571 144.765 154.516 138.806 137.714 130.444C112.193 117.741 96.249 104.137 96.249 68.2872C96.2491 40.0436 114.776 18 134.185 18C147.356 18 156.746 22.3402 162.354 26.0363C165.929 28.3928 171.255 28.3928 174.83 26.0363C180.438 22.3402 189.828 18 202.999 18Z" fill="url(#paint3_radial_135_2833)"/>
</g>
<g filter="url(#filter1_g_135_2833)">
<path d="M275.75 244.797C267.241 262.242 239.307 269.23 213.922 256.849C181.7 241.134 176.065 220.62 176.233 192.333C176.345 173.603 174.414 163.698 173.091 159.136C172.688 157.745 173.856 155.279 175.191 154.718C179.536 152.89 188.423 148.263 203.305 136.827C225.909 119.457 245.127 111.091 277.348 126.806C302.733 139.187 314.424 165.502 305.916 182.947C300.142 194.785 292.125 201.322 286.344 204.742C282.659 206.923 280.325 211.709 280.875 215.956C281.739 222.617 281.524 232.959 275.75 244.797Z" fill="#37BC69"/>
<path d="M275.75 244.797C267.241 262.242 239.307 269.23 213.922 256.849C181.7 241.134 176.065 220.62 176.233 192.333C176.345 173.603 174.414 163.698 173.091 159.136C172.688 157.745 173.856 155.279 175.191 154.718C179.536 152.89 188.423 148.263 203.305 136.827C225.909 119.457 245.127 111.091 277.348 126.806C302.733 139.187 314.424 165.502 305.916 182.947C300.142 194.785 292.125 201.322 286.344 204.742C282.659 206.923 280.325 211.709 280.875 215.956C281.739 222.617 281.524 232.959 275.75 244.797Z" fill="url(#paint4_linear_135_2833)"/>
<path d="M275.75 244.797C267.241 262.242 239.307 269.23 213.922 256.849C181.7 241.134 176.065 220.62 176.233 192.333C176.345 173.603 174.414 163.698 173.091 159.136C172.688 157.745 173.856 155.279 175.191 154.718C179.536 152.89 188.423 148.263 203.305 136.827C225.909 119.457 245.127 111.091 277.348 126.806C302.733 139.187 314.424 165.502 305.916 182.947C300.142 194.785 292.125 201.322 286.344 204.742C282.659 206.923 280.325 211.709 280.875 215.956C281.739 222.617 281.524 232.959 275.75 244.797Z" fill="url(#paint5_linear_135_2833)"/>
<path d="M275.75 244.797C267.241 262.242 239.307 269.23 213.922 256.849C181.7 241.134 176.065 220.62 176.233 192.333C176.345 173.603 174.414 163.698 173.091 159.136C172.688 157.745 173.856 155.279 175.191 154.718C179.536 152.89 188.423 148.263 203.305 136.827C225.909 119.457 245.127 111.091 277.348 126.806C302.733 139.187 314.424 165.502 305.916 182.947C300.142 194.785 292.125 201.322 286.344 204.742C282.659 206.923 280.325 211.709 280.875 215.956C281.739 222.617 281.524 232.959 275.75 244.797Z" fill="url(#paint6_radial_135_2833)"/>
<path d="M275.75 244.797C267.241 262.242 239.307 269.23 213.922 256.849C181.7 241.134 176.065 220.62 176.233 192.333C176.345 173.603 174.414 163.698 173.091 159.136C172.688 157.745 173.856 155.279 175.191 154.718C179.536 152.89 188.423 148.263 203.305 136.827C225.909 119.457 245.127 111.091 277.348 126.806C302.733 139.187 314.424 165.502 305.916 182.947C300.142 194.785 292.125 201.322 286.344 204.742C282.659 206.923 280.325 211.709 280.875 215.956C281.739 222.617 281.524 232.959 275.75 244.797Z" fill="url(#paint7_radial_135_2833)"/>
</g>
<g filter="url(#filter2_g_135_2833)">
<path d="M30.6306 182.82C22.1222 165.375 33.8133 139.06 59.1984 126.679C91.42 110.963 111.055 119.152 133.241 136.7C147.932 148.319 156.925 152.896 161.336 154.662C162.68 155.201 163.904 157.639 163.524 159.037C162.289 163.586 160.464 173.438 160.313 192.206C160.084 220.712 154.846 241.006 122.625 256.722C97.2393 269.103 69.3051 262.114 60.7967 244.67C55.023 232.832 54.8078 222.49 55.6713 215.829C56.2219 211.582 53.8874 206.796 50.202 204.615C44.4215 201.195 36.4044 194.658 30.6306 182.82Z" fill="#37BC69"/>
<path d="M30.6306 182.82C22.1222 165.375 33.8133 139.06 59.1984 126.679C91.42 110.963 111.055 119.152 133.241 136.7C147.932 148.319 156.925 152.896 161.336 154.662C162.68 155.201 163.904 157.639 163.524 159.037C162.289 163.586 160.464 173.438 160.313 192.206C160.084 220.712 154.846 241.006 122.625 256.722C97.2393 269.103 69.3051 262.114 60.7967 244.67C55.023 232.832 54.8078 222.49 55.6713 215.829C56.2219 211.582 53.8874 206.796 50.202 204.615C44.4215 201.195 36.4044 194.658 30.6306 182.82Z" fill="url(#paint8_linear_135_2833)"/>
<path d="M30.6306 182.82C22.1222 165.375 33.8133 139.06 59.1984 126.679C91.42 110.963 111.055 119.152 133.241 136.7C147.932 148.319 156.925 152.896 161.336 154.662C162.68 155.201 163.904 157.639 163.524 159.037C162.289 163.586 160.464 173.438 160.313 192.206C160.084 220.712 154.846 241.006 122.625 256.722C97.2393 269.103 69.3051 262.114 60.7967 244.67C55.023 232.832 54.8078 222.49 55.6713 215.829C56.2219 211.582 53.8874 206.796 50.202 204.615C44.4215 201.195 36.4044 194.658 30.6306 182.82Z" fill="url(#paint9_linear_135_2833)"/>
<path d="M30.6306 182.82C22.1222 165.375 33.8133 139.06 59.1984 126.679C91.42 110.963 111.055 119.152 133.241 136.7C147.932 148.319 156.925 152.896 161.336 154.662C162.68 155.201 163.904 157.639 163.524 159.037C162.289 163.586 160.464 173.438 160.313 192.206C160.084 220.712 154.846 241.006 122.625 256.722C97.2393 269.103 69.3051 262.114 60.7967 244.67C55.023 232.832 54.8078 222.49 55.6713 215.829C56.2219 211.582 53.8874 206.796 50.202 204.615C44.4215 201.195 36.4044 194.658 30.6306 182.82Z" fill="url(#paint10_radial_135_2833)"/>
<path d="M30.6306 182.82C22.1222 165.375 33.8133 139.06 59.1984 126.679C91.42 110.963 111.055 119.152 133.241 136.7C147.932 148.319 156.925 152.896 161.336 154.662C162.68 155.201 163.904 157.639 163.524 159.037C162.289 163.586 160.464 173.438 160.313 192.206C160.084 220.712 154.846 241.006 122.625 256.722C97.2393 269.103 69.3051 262.114 60.7967 244.67C55.023 232.832 54.8078 222.49 55.6713 215.829C56.2219 211.582 53.8874 206.796 50.202 204.615C44.4215 201.195 36.4044 194.658 30.6306 182.82Z" fill="url(#paint11_radial_135_2833)"/>
</g>
<g filter="url(#filter3_g_135_2833)">
<path d="M126.209 307.247C117.33 307.247 99.4779 303.033 105.237 290.382C110.997 277.732 138.911 271.263 154.248 247.429C169.585 223.596 165.277 165.524 167.975 165.767C170.673 166.01 174.129 218.575 169.585 243.283C160.947 290.256 135.088 307.247 126.209 307.247Z" fill="#37BC69"/>
<path d="M126.209 307.247C117.33 307.247 99.4779 303.033 105.237 290.382C110.997 277.732 138.911 271.263 154.248 247.429C169.585 223.596 165.277 165.524 167.975 165.767C170.673 166.01 174.129 218.575 169.585 243.283C160.947 290.256 135.088 307.247 126.209 307.247Z" fill="url(#paint12_linear_135_2833)"/>
<path d="M126.209 307.247C117.33 307.247 99.4779 303.033 105.237 290.382C110.997 277.732 138.911 271.263 154.248 247.429C169.585 223.596 165.277 165.524 167.975 165.767C170.673 166.01 174.129 218.575 169.585 243.283C160.947 290.256 135.088 307.247 126.209 307.247Z" fill="url(#paint13_linear_135_2833)" fill-opacity="0.5"/>
</g>
<defs>
<filter id="filter0_g_135_2833" x="90.6411" y="12.3921" width="155.901" height="141.784" filterUnits="userSpaceOnUse" color-interpolation-filters="sRGB">
<feFlood flood-opacity="0" result="BackgroundImageFix"/>
<feBlend mode="normal" in="SourceGraphic" in2="BackgroundImageFix" result="shape"/>
<feTurbulence type="fractalNoise" baseFrequency="2.1398472785949707 2.1398472785949707" numOctaves="3" seed="1322" />
<feDisplacementMap in="shape" scale="11.215753555297852" xChannelSelector="R" yChannelSelector="G" result="displacedImage" width="100%" height="100%" />
<feMerge result="effect1_texture_135_2833">
<feMergeNode in="displacedImage"/>
</feMerge>
</filter>
<filter id="filter1_g_135_2833" x="167.402" y="112.881" width="146.874" height="155.841" filterUnits="userSpaceOnUse" color-interpolation-filters="sRGB">
<feFlood flood-opacity="0" result="BackgroundImageFix"/>
<feBlend mode="normal" in="SourceGraphic" in2="BackgroundImageFix" result="shape"/>
<feTurbulence type="fractalNoise" baseFrequency="2.1398472785949707 2.1398472785949707" numOctaves="3" seed="1322" />
<feDisplacementMap in="shape" scale="11.215753555297852" xChannelSelector="R" yChannelSelector="G" result="displacedImage" width="100%" height="100%" />
<feMerge result="effect1_texture_135_2833">
<feMergeNode in="displacedImage"/>
</feMerge>
</filter>
<filter id="filter2_g_135_2833" x="22.271" y="112.708" width="146.932" height="155.887" filterUnits="userSpaceOnUse" color-interpolation-filters="sRGB">
<feFlood flood-opacity="0" result="BackgroundImageFix"/>
<feBlend mode="normal" in="SourceGraphic" in2="BackgroundImageFix" result="shape"/>
<feTurbulence type="fractalNoise" baseFrequency="2.1398472785949707 2.1398472785949707" numOctaves="3" seed="1322" />
<feDisplacementMap in="shape" scale="11.215753555297852" xChannelSelector="R" yChannelSelector="G" result="displacedImage" width="100%" height="100%" />
<feMerge result="effect1_texture_135_2833">
<feMergeNode in="displacedImage"/>
</feMerge>
</filter>
<filter id="filter3_g_135_2833" x="98.5074" y="160.158" width="78.8925" height="152.696" filterUnits="userSpaceOnUse" color-interpolation-filters="sRGB">
<feFlood flood-opacity="0" result="BackgroundImageFix"/>
<feBlend mode="normal" in="SourceGraphic" in2="BackgroundImageFix" result="shape"/>
<feTurbulence type="fractalNoise" baseFrequency="2.1398472785949707 2.1398472785949707" numOctaves="3" seed="1322" />
<feDisplacementMap in="shape" scale="11.215753555297852" xChannelSelector="R" yChannelSelector="G" result="displacedImage" width="100%" height="100%" />
<feMerge result="effect1_texture_135_2833">
<feMergeNode in="displacedImage"/>
</feMerge>
</filter>
<linearGradient id="paint0_linear_135_2833" x1="168.217" y1="84.1674" x2="241.119" y2="84.1674" gradientUnits="userSpaceOnUse">
<stop stop-color="#37BC69" stop-opacity="0"/>
<stop offset="1" stop-color="#7DD49F"/>
</linearGradient>
<linearGradient id="paint1_linear_135_2833" x1="168.217" y1="84.1674" x2="96.249" y2="84.3599" gradientUnits="userSpaceOnUse">
<stop stop-color="#37BC69" stop-opacity="0"/>
<stop offset="1" stop-color="#7DD49F"/>
</linearGradient>
<radialGradient id="paint2_radial_135_2833" cx="0" cy="0" r="1" gradientUnits="userSpaceOnUse" gradientTransform="translate(168.217 130.625) rotate(90) scale(129.916 129.916)">
<stop stop-color="#FED4AA"/>
<stop offset="1" stop-color="#59C783" stop-opacity="0"/>
</radialGradient>
<radialGradient id="paint3_radial_135_2833" cx="0" cy="0" r="1" gradientUnits="userSpaceOnUse" gradientTransform="translate(168.217 150.72) rotate(90) scale(31.3106 33.8941)">
<stop stop-color="white"/>
<stop offset="1" stop-color="#D5D09E" stop-opacity="0"/>
</radialGradient>
<linearGradient id="paint4_linear_135_2833" x1="231.526" y1="184.529" x2="199.568" y2="250.053" gradientUnits="userSpaceOnUse">
<stop stop-color="#37BC69" stop-opacity="0"/>
<stop offset="1" stop-color="#7DD49F"/>
</linearGradient>
<linearGradient id="paint5_linear_135_2833" x1="231.526" y1="184.529" x2="262.902" y2="119.76" gradientUnits="userSpaceOnUse">
<stop stop-color="#37BC69" stop-opacity="0"/>
<stop offset="1" stop-color="#7DD49F"/>
</linearGradient>
<radialGradient id="paint6_radial_135_2833" cx="0" cy="0" r="1" gradientUnits="userSpaceOnUse" gradientTransform="translate(189.771 164.163) rotate(-154) scale(129.916 129.916)">
<stop stop-color="#FED4AA"/>
<stop offset="1" stop-color="#59C783" stop-opacity="0"/>
</radialGradient>
<radialGradient id="paint7_radial_135_2833" cx="0" cy="0" r="1" gradientUnits="userSpaceOnUse" gradientTransform="translate(171.71 155.354) rotate(-154) scale(31.3106 33.8941)">
<stop stop-color="white"/>
<stop offset="1" stop-color="#D5D09E" stop-opacity="0"/>
</radialGradient>
<linearGradient id="paint8_linear_135_2833" x1="105.349" y1="185.076" x2="73.3907" y2="119.552" gradientUnits="userSpaceOnUse">
<stop stop-color="#37BC69" stop-opacity="0"/>
<stop offset="1" stop-color="#7DD49F"/>
</linearGradient>
<linearGradient id="paint9_linear_135_2833" x1="105.349" y1="185.076" x2="137.071" y2="249.676" gradientUnits="userSpaceOnUse">
<stop stop-color="#37BC69" stop-opacity="0"/>
<stop offset="1" stop-color="#7DD49F"/>
</linearGradient>
<radialGradient id="paint10_radial_135_2833" cx="0" cy="0" r="1" gradientUnits="userSpaceOnUse" gradientTransform="translate(147.105 164.711) rotate(-26) scale(129.916 129.916)">
<stop stop-color="#FED4AA"/>
<stop offset="1" stop-color="#59C783" stop-opacity="0"/>
</radialGradient>
<radialGradient id="paint11_radial_135_2833" cx="0" cy="0" r="1" gradientUnits="userSpaceOnUse" gradientTransform="translate(165.166 155.902) rotate(-26) scale(31.3106 33.8941)">
<stop stop-color="white"/>
<stop offset="1" stop-color="#D5D09E" stop-opacity="0"/>
</radialGradient>
<linearGradient id="paint12_linear_135_2833" x1="168.09" y1="183.259" x2="160.603" y2="270.92" gradientUnits="userSpaceOnUse">
<stop stop-color="#FEBD79" stop-opacity="0.6"/>
<stop offset="1" stop-color="#5BC182" stop-opacity="0"/>
</linearGradient>
<linearGradient id="paint13_linear_135_2833" x1="145.431" y1="282.511" x2="102.485" y2="334.566" gradientUnits="userSpaceOnUse">
<stop stop-color="white" stop-opacity="0"/>
<stop offset="1" stop-color="white"/>
</linearGradient>
</defs>
</svg>
