<svg width="24" height="24" viewBox="0 0 24 24" fill="none" xmlns="http://www.w3.org/2000/svg">
<path d="M14.7821 2.5791C16.2699 2.5791 17.69 4.26877 17.69 6.43368C17.69 9.18161 16.4661 10.2592 14.5116 11.198C13.2175 11.8197 12.6 12.2855 12.3301 12.53C12.2478 12.6045 12.0387 12.6069 11.9552 12.5338C11.6833 12.2958 11.0659 11.8391 9.77795 11.198C7.82176 10.2244 6.59961 9.18161 6.59961 6.43368C6.59962 4.26877 8.01972 2.5791 9.50745 2.5791C10.517 2.5791 11.2367 2.91178 11.6666 3.19509C11.9407 3.37572 12.3489 3.37572 12.623 3.19509C13.0528 2.91178 13.7726 2.5791 14.7821 2.5791Z" fill="#7DD49F"/>
<path d="M21.0001 21.035C20.3479 22.3721 18.2067 22.9078 16.2609 21.9588C13.7911 20.7542 13.3591 19.1818 13.372 17.0135C13.3806 15.5778 13.2326 14.8187 13.1312 14.4689C13.1003 14.3623 13.1898 14.1733 13.2921 14.1303C13.6252 13.9902 14.3064 13.6355 15.4472 12.7589C17.1798 11.4275 18.6528 10.7862 21.1226 11.9908C23.0684 12.9399 23.9646 14.9569 23.3124 16.2941C22.8698 17.2015 22.2553 17.7025 21.8122 17.9647C21.5297 18.1319 21.3508 18.4988 21.393 18.8243C21.4592 19.3348 21.4427 20.1276 21.0001 21.035Z" fill="#7DD49F"/>
<path d="M1.21095 16.2844C0.558766 14.9473 1.4549 12.9302 3.4007 11.9812C5.87052 10.7766 7.37554 11.4042 9.07617 12.7493C10.2023 13.6399 10.8916 13.9907 11.2296 14.1261C11.3327 14.1674 11.4265 14.3543 11.3974 14.4614C11.3027 14.8101 11.1628 15.5653 11.1513 17.0039C11.1337 19.1889 10.7322 20.7445 8.2624 21.9491C6.31659 22.8981 4.17539 22.3625 3.52322 21.0253C3.08065 20.1179 3.06415 19.3252 3.13035 18.8146C3.17255 18.4891 2.99361 18.1222 2.71112 17.9551C2.26803 17.6929 1.65352 17.1918 1.21095 16.2844Z" fill="#26AD59"/>
</svg>
