<svg width="24" height="24" viewBox="0 0 24 24" fill="none" xmlns="http://www.w3.org/2000/svg">
<path d="M10.5 16C10.7761 16 11 16.2239 11 16.5C11 16.7761 10.7761 17 10.5 17H5.5C5.22386 17 5 16.7761 5 16.5C5 16.2239 5.22386 16 5.5 16H10.5Z" fill="black"/>
<path fill-rule="evenodd" clip-rule="evenodd" d="M20.1025 5.00488C20.6067 5.05621 21 5.48232 21 6V18L20.9951 18.1025C20.9472 18.573 20.573 18.9472 20.1025 18.9951L20 19H4C3.48232 19 3.05621 18.6067 3.00488 18.1025L3 18V6C3 5.44772 3.44772 5 4 5H20L20.1025 5.00488ZM4 18H20V9H4V18ZM4 8H20V6H4V8Z" fill="black"/>
</svg>
