<svg width="236" height="33" viewBox="0 0 236 33" fill="none" xmlns="http://www.w3.org/2000/svg">
<path d="M227.462 28.256C225.574 28.256 223.494 27.936 222.054 27.424C221.222 27.136 220.934 26.752 220.934 25.952V24.288C220.934 23.136 221.51 22.976 222.534 23.328C224.07 23.84 225.67 24.096 227.142 24.096C229.286 24.096 230.214 23.648 230.214 22.752C230.214 21.856 229.702 21.504 227.846 21.056L226.022 20.64C222.982 19.936 221.35 18.272 221.35 15.424C221.35 11.968 224.422 9.76001 229.446 9.76001C231.142 9.76001 233.094 10.112 234.15 10.496C234.918 10.816 235.174 11.296 235.014 12.192L234.726 13.632C234.534 14.56 234.086 14.752 232.934 14.4C231.846 14.08 230.758 13.92 229.67 13.92C227.75 13.92 226.726 14.464 226.726 15.392C226.726 16.224 227.302 16.544 229.094 16.992L230.918 17.408C234.054 18.112 235.622 19.68 235.622 22.624C235.622 26.176 232.582 28.256 227.462 28.256Z" fill="#37BC69"/>
<path d="M212.26 28.256C206.18 28.256 203.332 25.376 203.332 19.136C203.332 13.056 206.436 9.76001 212.164 9.76001C216.708 9.76001 219.556 11.936 219.556 15.392C219.556 18.496 217.572 20.096 213.508 20.384L208.708 20.704C208.964 22.912 210.18 23.904 212.932 23.904C214.372 23.904 215.94 23.616 217.284 23.072C218.34 22.624 219.044 22.848 219.044 23.808V25.568C219.044 26.4 218.66 26.976 217.764 27.328C216.42 27.872 214.18 28.256 212.26 28.256ZM208.676 17.536L211.588 17.312C213.668 17.152 214.628 16.64 214.628 15.456C214.628 14.304 213.668 13.632 212.068 13.632C209.988 13.632 208.804 15.008 208.676 17.536Z" fill="#37BC69"/>
<path d="M199.071 28.1921C195.455 28.1921 194.047 26.6561 194.047 22.7201V5.66405C194.047 4.73605 194.431 4.35205 195.327 4.35205H197.983C198.911 4.35205 199.263 4.73605 199.263 5.66405V22.1761C199.263 23.3281 199.679 23.8081 200.607 23.8081C200.895 23.8081 201.023 23.7761 201.183 23.7761C201.887 23.7761 202.143 24.0961 202.143 24.8961V26.5281C202.143 27.3921 201.791 27.7761 200.863 28.0001C200.319 28.1601 199.647 28.1921 199.071 28.1921Z" fill="#37BC69"/>
<path d="M180.384 28.256C176.896 28.256 174.784 26.304 174.784 23.136C174.784 19.296 177.952 17.504 185.472 17.472V17.28C185.472 15.168 184.384 14.176 182.016 14.176C180.608 14.176 179.424 14.464 177.92 15.008C176.96 15.36 176.512 15.136 176.288 14.24L175.872 12.64C175.648 11.808 175.872 11.296 176.704 10.912C178.208 10.272 180.832 9.76001 183.008 9.76001C188.096 9.76001 190.72 12.32 190.72 17.152V26.592C190.72 27.52 190.368 27.904 189.44 27.904H187.36C186.464 27.904 186.08 27.488 186.08 26.56V26.176C184.704 27.552 182.752 28.256 180.384 28.256ZM182.016 24.64C183.136 24.64 184.64 24.224 185.472 23.456V20.672C181.152 20.736 179.776 21.376 179.776 22.912C179.776 24.032 180.512 24.64 182.016 24.64Z" fill="#37BC69"/>
<path d="M164.987 27.9041C164.091 27.9041 163.675 27.5201 163.675 26.5921V9.24805H158.779C157.883 9.24805 157.499 8.86405 157.499 7.93605V5.66405C157.499 4.73605 157.883 4.35205 158.779 4.35205H174.011C174.907 4.35205 175.291 4.73605 175.291 5.66405V7.93605C175.291 8.86405 174.907 9.24805 174.011 9.24805H169.115V26.5921C169.115 27.5201 168.699 27.9041 167.803 27.9041H164.987Z" fill="#37BC69"/>
<path d="M135.372 27.9041C134.476 27.9041 134.092 27.5201 134.092 26.5921V5.66405C134.092 4.73605 134.476 4.35205 135.372 4.35205H138.028C138.956 4.35205 139.308 4.73605 139.308 5.66405V16.7681C141.132 15.5201 142.956 13.5041 144.044 11.3281C144.524 10.3681 144.876 10.1441 145.804 10.1441H148.652C149.388 10.1441 149.74 10.4321 149.74 11.1681C149.74 12.3841 147.5 15.6481 145.036 18.1121C147.468 20.7681 150.156 25.2801 150.156 26.8801C150.156 27.5521 149.804 27.9041 149.068 27.9041H146.252C145.292 27.9041 144.908 27.6161 144.524 26.7201C143.628 24.7681 142.444 22.9121 140.94 21.0881C140.428 21.4721 139.884 21.7921 139.308 22.1121V26.5921C139.308 27.5201 138.956 27.9041 138.028 27.9041H135.372Z" fill="#37BC69"/>
<path d="M126.787 28.256C121.123 28.256 118.307 25.152 118.307 19.04C118.307 12.864 121.187 9.76001 126.979 9.76001C128.739 9.76001 130.051 10.112 130.723 10.368C131.459 10.688 131.811 11.2 131.619 12.032L131.235 13.856C131.043 14.912 130.467 14.944 129.539 14.656C128.611 14.336 128.035 14.208 127.235 14.208C124.707 14.208 123.715 15.616 123.715 18.976C123.715 22.432 124.739 23.808 127.267 23.808C128.131 23.808 128.835 23.68 130.115 23.296C131.043 23.04 131.523 23.296 131.523 24.32V26.08C131.523 26.944 131.235 27.392 130.403 27.68C129.571 28.032 128.259 28.256 126.787 28.256Z" fill="#37BC69"/>
<path d="M107.396 28.256C101.604 28.256 98.7236 25.216 98.7236 19.008C98.7236 12.832 101.604 9.76001 107.396 9.76001C113.22 9.76001 116.1 12.832 116.1 19.008C116.1 25.216 113.22 28.256 107.396 28.256ZM107.396 23.84C109.796 23.84 110.756 22.432 110.756 19.008C110.756 15.584 109.796 14.176 107.396 14.176C105.028 14.176 104.036 15.584 104.036 19.008C104.036 22.432 105.028 23.84 107.396 23.84Z" fill="#37BC69"/>
<path d="M88.0612 27.904C87.1652 27.904 86.7812 27.52 86.7812 26.592V11.424C86.7812 10.528 87.1652 10.144 88.0612 10.144H90.1413C91.0373 10.144 91.4212 10.496 91.4212 11.424V12.352C92.4772 11.04 94.8452 9.82397 96.3812 9.82397C97.3412 9.82397 97.7253 10.208 97.7253 11.136V14.08C97.7253 15.008 97.3092 15.392 96.4132 15.392C94.9092 15.392 93.1492 15.2 91.9972 15.04V26.592C91.9972 27.52 91.6452 27.904 90.7172 27.904H88.0612Z" fill="#37BC69"/>
<path d="M57.9792 27.904C57.0832 27.904 56.6992 27.52 56.6992 26.592V11.424C56.6992 10.528 57.0832 10.144 57.9792 10.144H60.0272C60.9872 10.144 61.3392 10.496 61.3392 11.392V11.648C62.6512 10.496 64.6672 9.76001 66.6512 9.76001C68.8912 9.76001 70.3952 10.496 71.3872 11.936C73.1152 10.496 75.1632 9.76001 77.3392 9.76001C81.4672 9.76001 83.4512 12.224 83.4512 17.28V26.592C83.4512 27.52 83.0992 27.904 82.1712 27.904H79.5152C78.6192 27.904 78.2032 27.52 78.2032 26.592V17.92C78.2032 15.264 77.4992 14.208 75.7712 14.208C74.8112 14.208 73.6912 14.624 72.5392 15.424C72.6352 16.064 72.6992 16.768 72.6992 17.472V26.592C72.6992 27.52 72.3152 27.904 71.3872 27.904H68.7312C67.8352 27.904 67.4512 27.52 67.4512 26.592V17.92C67.4512 15.264 66.7472 14.208 64.9872 14.208C63.9952 14.208 62.8112 14.624 61.9152 15.392V26.592C61.9152 27.52 61.5632 27.904 60.6352 27.904H57.9792Z" fill="#37BC69"/>
<path d="M43.0365 28.256C39.5485 28.256 37.4365 26.304 37.4365 23.136C37.4365 19.296 40.6045 17.504 48.1245 17.472V17.28C48.1245 15.168 47.0365 14.176 44.6685 14.176C43.2605 14.176 42.0765 14.464 40.5725 15.008C39.6125 15.36 39.1645 15.136 38.9405 14.24L38.5245 12.64C38.3005 11.808 38.5245 11.296 39.3565 10.912C40.8605 10.272 43.4845 9.76001 45.6605 9.76001C50.7485 9.76001 53.3725 12.32 53.3725 17.152V26.592C53.3725 27.52 53.0205 27.904 52.0925 27.904H50.0125C49.1165 27.904 48.7325 27.488 48.7325 26.56V26.176C47.3565 27.552 45.4045 28.256 43.0365 28.256ZM44.6685 24.64C45.7885 24.64 47.2925 24.224 48.1245 23.456V20.672C43.8045 20.736 42.4285 21.376 42.4285 22.912C42.4285 24.032 43.1645 24.64 44.6685 24.64Z" fill="#37BC69"/>
<path d="M20.1882 27.9041C19.2922 27.9041 18.9082 27.5201 18.9082 26.5921V5.66405C18.9082 4.73605 19.2922 4.35205 20.1882 4.35205H22.8442C23.7722 4.35205 24.1242 4.73605 24.1242 5.66405V11.2961C25.3402 10.4001 27.0042 9.76005 28.9242 9.76005C33.0842 9.76005 35.1002 12.2241 35.1002 17.2801V26.5921C35.1002 27.5201 34.7162 27.9041 33.7882 27.9041H31.1642C30.2362 27.9041 29.8522 27.5201 29.8522 26.5921V17.7281C29.8522 15.2641 29.0842 14.2081 27.2922 14.2081C26.2362 14.2081 25.0202 14.6241 24.1242 15.3921V26.5921C24.1242 27.5201 23.7722 27.9041 22.8442 27.9041H20.1882Z" fill="#37BC69"/>
<path d="M6.816 28.256C4.672 28.256 2.592 27.904 1.12 27.392C0.288 27.136 0 26.72 0 25.888V23.616C0 22.656 0.384 22.272 1.504 22.624C2.848 23.104 5.152 23.488 6.784 23.488C9.248 23.488 10.336 22.688 10.336 21.28C10.336 20.096 9.568 19.296 7.36 18.464L5.44 17.76C1.632 16.32 0.256 14.112 0.256 10.816C0.256 6.368 3.68 4 9.12 4C11.456 4 13.216 4.512 14.496 4.96C15.424 5.28 15.712 5.728 15.52 6.688L15.072 8.736C14.848 9.6 14.4 9.824 13.504 9.504C12.256 9.12 10.72 8.768 9.184 8.768C7.104 8.768 5.952 9.44 5.952 10.88C5.952 12.096 6.688 12.896 8.896 13.728L10.816 14.464C14.656 15.904 16 17.984 16 21.344C16 26.144 11.968 28.256 6.816 28.256Z" fill="#37BC69"/>
</svg>
