<svg width="79" height="153" viewBox="0 0 79 153" fill="none" xmlns="http://www.w3.org/2000/svg">
<g filter="url(#filter0_g_106_9328)">
<path d="M27.7011 147.088C18.8221 147.088 0.970129 142.874 6.72944 130.224C12.4888 117.573 40.4031 111.104 55.7403 87.2704C71.0776 63.4369 66.7696 5.36527 69.4676 5.60852C72.1655 5.85177 75.6216 58.4159 71.0775 83.1239C62.4388 130.097 36.5801 147.088 27.7011 147.088Z" fill="#37BC69"/>
<path d="M27.7011 147.088C18.8221 147.088 0.970129 142.874 6.72944 130.224C12.4888 117.573 40.4031 111.104 55.7403 87.2704C71.0776 63.4369 66.7696 5.36527 69.4676 5.60852C72.1655 5.85177 75.6216 58.4159 71.0775 83.1239C62.4388 130.097 36.5801 147.088 27.7011 147.088Z" fill="url(#paint0_linear_106_9328)"/>
<path d="M27.7011 147.088C18.8221 147.088 0.970129 142.874 6.72944 130.224C12.4888 117.573 40.4031 111.104 55.7403 87.2704C71.0776 63.4369 66.7696 5.36527 69.4676 5.60852C72.1655 5.85177 75.6216 58.4159 71.0775 83.1239C62.4388 130.097 36.5801 147.088 27.7011 147.088Z" fill="url(#paint1_linear_106_9328)" fill-opacity="0.5"/>
</g>
<defs>
<filter id="filter0_g_106_9328" x="-0.000454903" y="-0.000210762" width="78.8925" height="152.696" filterUnits="userSpaceOnUse" color-interpolation-filters="sRGB">
<feFlood flood-opacity="0" result="BackgroundImageFix"/>
<feBlend mode="normal" in="SourceGraphic" in2="BackgroundImageFix" result="shape"/>
<feTurbulence type="fractalNoise" baseFrequency="2.1398472785949707 2.1398472785949707" numOctaves="3" seed="1322" />
<feDisplacementMap in="shape" scale="11.215753555297852" xChannelSelector="R" yChannelSelector="G" result="displacedImage" width="100%" height="100%" />
<feMerge result="effect1_texture_106_9328">
<feMergeNode in="displacedImage"/>
</feMerge>
</filter>
<linearGradient id="paint0_linear_106_9328" x1="69.5818" y1="23.1006" x2="62.0952" y2="110.761" gradientUnits="userSpaceOnUse">
<stop stop-color="#FEBD79" stop-opacity="0.6"/>
<stop offset="1" stop-color="#5BC182" stop-opacity="0"/>
</linearGradient>
<linearGradient id="paint1_linear_106_9328" x1="46.9231" y1="122.352" x2="3.97759" y2="174.407" gradientUnits="userSpaceOnUse">
<stop stop-color="white" stop-opacity="0"/>
<stop offset="1" stop-color="white"/>
</linearGradient>
</defs>
</svg>
