<svg width="147" height="156" viewBox="0 0 147 156" fill="none" xmlns="http://www.w3.org/2000/svg">
<g filter="url(#filter0_g_106_9326)">
<path d="M108.347 131.916C99.8391 149.361 71.9048 156.349 46.5195 143.968C14.298 128.253 8.66252 107.739 8.83082 79.4522C8.94227 60.7219 7.01209 50.8176 5.68873 46.2548C5.28529 44.8638 6.45333 42.3983 7.78843 41.8369C12.1341 40.0095 21.021 35.3818 35.903 23.9461C58.507 6.57656 77.7242 -1.79022 109.946 13.9253C135.331 26.3066 147.022 52.6216 138.514 70.0663C132.74 81.9044 124.723 88.4411 118.942 91.8614C115.257 94.0421 112.922 98.8284 113.473 103.075C114.336 109.736 114.121 120.078 108.347 131.916Z" fill="#37BC69"/>
<path d="M108.347 131.916C99.8391 149.361 71.9048 156.349 46.5195 143.968C14.298 128.253 8.66252 107.739 8.83082 79.4522C8.94227 60.7219 7.01209 50.8176 5.68873 46.2548C5.28529 44.8638 6.45333 42.3983 7.78843 41.8369C12.1341 40.0095 21.021 35.3818 35.903 23.9461C58.507 6.57656 77.7242 -1.79022 109.946 13.9253C135.331 26.3066 147.022 52.6216 138.514 70.0663C132.74 81.9044 124.723 88.4411 118.942 91.8614C115.257 94.0421 112.922 98.8284 113.473 103.075C114.336 109.736 114.121 120.078 108.347 131.916Z" fill="url(#paint0_linear_106_9326)"/>
<path d="M108.347 131.916C99.8391 149.361 71.9048 156.349 46.5195 143.968C14.298 128.253 8.66252 107.739 8.83082 79.4522C8.94227 60.7219 7.01209 50.8176 5.68873 46.2548C5.28529 44.8638 6.45333 42.3983 7.78843 41.8369C12.1341 40.0095 21.021 35.3818 35.903 23.9461C58.507 6.57656 77.7242 -1.79022 109.946 13.9253C135.331 26.3066 147.022 52.6216 138.514 70.0663C132.74 81.9044 124.723 88.4411 118.942 91.8614C115.257 94.0421 112.922 98.8284 113.473 103.075C114.336 109.736 114.121 120.078 108.347 131.916Z" fill="url(#paint1_linear_106_9326)"/>
<path d="M108.347 131.916C99.8391 149.361 71.9048 156.349 46.5195 143.968C14.298 128.253 8.66252 107.739 8.83082 79.4522C8.94227 60.7219 7.01209 50.8176 5.68873 46.2548C5.28529 44.8638 6.45333 42.3983 7.78843 41.8369C12.1341 40.0095 21.021 35.3818 35.903 23.9461C58.507 6.57656 77.7242 -1.79022 109.946 13.9253C135.331 26.3066 147.022 52.6216 138.514 70.0663C132.74 81.9044 124.723 88.4411 118.942 91.8614C115.257 94.0421 112.922 98.8284 113.473 103.075C114.336 109.736 114.121 120.078 108.347 131.916Z" fill="url(#paint2_radial_106_9326)"/>
<path d="M108.347 131.916C99.8391 149.361 71.9048 156.349 46.5195 143.968C14.298 128.253 8.66252 107.739 8.83082 79.4522C8.94227 60.7219 7.01209 50.8176 5.68873 46.2548C5.28529 44.8638 6.45333 42.3983 7.78843 41.8369C12.1341 40.0095 21.021 35.3818 35.903 23.9461C58.507 6.57656 77.7242 -1.79022 109.946 13.9253C135.331 26.3066 147.022 52.6216 138.514 70.0663C132.74 81.9044 124.723 88.4411 118.942 91.8614C115.257 94.0421 112.922 98.8284 113.473 103.075C114.336 109.736 114.121 120.078 108.347 131.916Z" fill="url(#paint3_radial_106_9326)"/>
</g>
<defs>
<filter id="filter0_g_106_9326" x="-0.000454903" y="-0.000210762" width="146.874" height="155.841" filterUnits="userSpaceOnUse" color-interpolation-filters="sRGB">
<feFlood flood-opacity="0" result="BackgroundImageFix"/>
<feBlend mode="normal" in="SourceGraphic" in2="BackgroundImageFix" result="shape"/>
<feTurbulence type="fractalNoise" baseFrequency="2.1398472785949707 2.1398472785949707" numOctaves="3" seed="1322" />
<feDisplacementMap in="shape" scale="11.215753555297852" xChannelSelector="R" yChannelSelector="G" result="displacedImage" width="100%" height="100%" />
<feMerge result="effect1_texture_106_9326">
<feMergeNode in="displacedImage"/>
</feMerge>
</filter>
<linearGradient id="paint0_linear_106_9326" x1="64.1241" y1="71.648" x2="32.1658" y2="137.172" gradientUnits="userSpaceOnUse">
<stop stop-color="#37BC69" stop-opacity="0"/>
<stop offset="1" stop-color="#7DD49F"/>
</linearGradient>
<linearGradient id="paint1_linear_106_9326" x1="64.1241" y1="71.648" x2="95.4997" y2="6.87947" gradientUnits="userSpaceOnUse">
<stop stop-color="#37BC69" stop-opacity="0"/>
<stop offset="1" stop-color="#7DD49F"/>
</linearGradient>
<radialGradient id="paint2_radial_106_9326" cx="0" cy="0" r="1" gradientUnits="userSpaceOnUse" gradientTransform="translate(22.3684 51.2824) rotate(-154) scale(129.916 129.916)">
<stop stop-color="#FED4AA"/>
<stop offset="1" stop-color="#59C783" stop-opacity="0"/>
</radialGradient>
<radialGradient id="paint3_radial_106_9326" cx="0" cy="0" r="1" gradientUnits="userSpaceOnUse" gradientTransform="translate(4.30725 42.4734) rotate(-154) scale(31.3106 33.8941)">
<stop stop-color="white"/>
<stop offset="1" stop-color="#D5D09E" stop-opacity="0"/>
</radialGradient>
</defs>
</svg>
