<svg width="156" height="142" viewBox="0 0 156 142" fill="none" xmlns="http://www.w3.org/2000/svg">
<g filter="url(#filter0_g_106_9325)">
<path d="M112.357 5.60791C131.766 5.60787 150.293 27.6515 150.293 55.8951C150.293 91.7449 134.326 105.803 108.829 118.051C91.9449 126.162 83.8892 132.239 80.3683 135.428C79.2949 136.401 76.5669 136.432 75.477 135.478C71.9296 132.373 63.8745 126.414 47.0723 118.051C21.5517 105.349 5.60742 91.7449 5.60742 55.8951C5.60754 27.6515 24.1343 5.60787 43.5434 5.60791C56.7144 5.60793 66.104 9.94812 71.7122 13.6442C75.2878 16.0007 80.6131 16.0007 84.1886 13.6442C89.7968 9.94812 99.1865 5.60793 112.357 5.60791Z" fill="#37BC69"/>
<path d="M112.357 5.60791C131.766 5.60787 150.293 27.6515 150.293 55.8951C150.293 91.7449 134.326 105.803 108.829 118.051C91.9449 126.162 83.8892 132.239 80.3683 135.428C79.2949 136.401 76.5669 136.432 75.477 135.478C71.9296 132.373 63.8745 126.414 47.0723 118.051C21.5517 105.349 5.60742 91.7449 5.60742 55.8951C5.60754 27.6515 24.1343 5.60787 43.5434 5.60791C56.7144 5.60793 66.104 9.94812 71.7122 13.6442C75.2878 16.0007 80.6131 16.0007 84.1886 13.6442C89.7968 9.94812 99.1865 5.60793 112.357 5.60791Z" fill="url(#paint0_linear_106_9325)"/>
<path d="M112.357 5.60791C131.766 5.60787 150.293 27.6515 150.293 55.8951C150.293 91.7449 134.326 105.803 108.829 118.051C91.9449 126.162 83.8892 132.239 80.3683 135.428C79.2949 136.401 76.5669 136.432 75.477 135.478C71.9296 132.373 63.8745 126.414 47.0723 118.051C21.5517 105.349 5.60742 91.7449 5.60742 55.8951C5.60754 27.6515 24.1343 5.60787 43.5434 5.60791C56.7144 5.60793 66.104 9.94812 71.7122 13.6442C75.2878 16.0007 80.6131 16.0007 84.1886 13.6442C89.7968 9.94812 99.1865 5.60793 112.357 5.60791Z" fill="url(#paint1_linear_106_9325)"/>
<path d="M112.357 5.60791C131.766 5.60787 150.293 27.6515 150.293 55.8951C150.293 91.7449 134.326 105.803 108.829 118.051C91.9449 126.162 83.8892 132.239 80.3683 135.428C79.2949 136.401 76.5669 136.432 75.477 135.478C71.9296 132.373 63.8745 126.414 47.0723 118.051C21.5517 105.349 5.60742 91.7449 5.60742 55.8951C5.60754 27.6515 24.1343 5.60787 43.5434 5.60791C56.7144 5.60793 66.104 9.94812 71.7122 13.6442C75.2878 16.0007 80.6131 16.0007 84.1886 13.6442C89.7968 9.94812 99.1865 5.60793 112.357 5.60791Z" fill="url(#paint2_radial_106_9325)"/>
<path d="M112.357 5.60791C131.766 5.60787 150.293 27.6515 150.293 55.8951C150.293 91.7449 134.326 105.803 108.829 118.051C91.9449 126.162 83.8892 132.239 80.3683 135.428C79.2949 136.401 76.5669 136.432 75.477 135.478C71.9296 132.373 63.8745 126.414 47.0723 118.051C21.5517 105.349 5.60742 91.7449 5.60742 55.8951C5.60754 27.6515 24.1343 5.60787 43.5434 5.60791C56.7144 5.60793 66.104 9.94812 71.7122 13.6442C75.2878 16.0007 80.6131 16.0007 84.1886 13.6442C89.7968 9.94812 99.1865 5.60793 112.357 5.60791Z" fill="url(#paint3_radial_106_9325)"/>
</g>
<defs>
<filter id="filter0_g_106_9325" x="-0.000454903" y="3.33786e-05" width="155.901" height="141.784" filterUnits="userSpaceOnUse" color-interpolation-filters="sRGB">
<feFlood flood-opacity="0" result="BackgroundImageFix"/>
<feBlend mode="normal" in="SourceGraphic" in2="BackgroundImageFix" result="shape"/>
<feTurbulence type="fractalNoise" baseFrequency="2.1398472785949707 2.1398472785949707" numOctaves="3" seed="1322" />
<feDisplacementMap in="shape" scale="11.215753555297852" xChannelSelector="R" yChannelSelector="G" result="displacedImage" width="100%" height="100%" />
<feMerge result="effect1_texture_106_9325">
<feMergeNode in="displacedImage"/>
</feMerge>
</filter>
<linearGradient id="paint0_linear_106_9325" x1="77.5752" y1="71.7753" x2="150.478" y2="71.7753" gradientUnits="userSpaceOnUse">
<stop stop-color="#37BC69" stop-opacity="0"/>
<stop offset="1" stop-color="#7DD49F"/>
</linearGradient>
<linearGradient id="paint1_linear_106_9325" x1="77.5752" y1="71.7753" x2="5.60742" y2="71.9678" gradientUnits="userSpaceOnUse">
<stop stop-color="#37BC69" stop-opacity="0"/>
<stop offset="1" stop-color="#7DD49F"/>
</linearGradient>
<radialGradient id="paint2_radial_106_9325" cx="0" cy="0" r="1" gradientUnits="userSpaceOnUse" gradientTransform="translate(77.5752 118.233) rotate(90) scale(129.916 129.916)">
<stop stop-color="#FED4AA"/>
<stop offset="1" stop-color="#59C783" stop-opacity="0"/>
</radialGradient>
<radialGradient id="paint3_radial_106_9325" cx="0" cy="0" r="1" gradientUnits="userSpaceOnUse" gradientTransform="translate(77.5752 138.328) rotate(90) scale(31.3106 33.8941)">
<stop stop-color="white"/>
<stop offset="1" stop-color="#D5D09E" stop-opacity="0"/>
</radialGradient>
</defs>
</svg>
