<svg width="147" height="156" viewBox="0 0 147 156" fill="none" xmlns="http://www.w3.org/2000/svg">
<g filter="url(#filter0_g_106_9327)">
<path d="M8.36011 70.1125C-0.14828 52.6678 11.5428 26.3528 36.9279 13.9715C69.1495 -1.74404 88.784 6.44461 110.971 23.9923C125.662 35.6117 134.655 40.1884 139.065 41.9547C140.41 42.4931 141.633 44.9315 141.254 46.3292C140.018 50.8787 138.194 60.7307 138.043 79.4984C137.814 108.004 132.576 128.299 100.354 144.014C74.9688 156.395 47.0345 149.407 38.5262 131.962C32.7524 120.124 32.5372 109.782 33.4008 103.121C33.9514 98.8746 31.6169 94.0883 27.9315 91.9076C22.151 88.4873 14.1339 81.9506 8.36011 70.1125Z" fill="#37BC69"/>
<path d="M8.36011 70.1125C-0.14828 52.6678 11.5428 26.3528 36.9279 13.9715C69.1495 -1.74404 88.784 6.44461 110.971 23.9923C125.662 35.6117 134.655 40.1884 139.065 41.9547C140.41 42.4931 141.633 44.9315 141.254 46.3292C140.018 50.8787 138.194 60.7307 138.043 79.4984C137.814 108.004 132.576 128.299 100.354 144.014C74.9688 156.395 47.0345 149.407 38.5262 131.962C32.7524 120.124 32.5372 109.782 33.4008 103.121C33.9514 98.8746 31.6169 94.0883 27.9315 91.9076C22.151 88.4873 14.1339 81.9506 8.36011 70.1125Z" fill="url(#paint0_linear_106_9327)"/>
<path d="M8.36011 70.1125C-0.14828 52.6678 11.5428 26.3528 36.9279 13.9715C69.1495 -1.74404 88.784 6.44461 110.971 23.9923C125.662 35.6117 134.655 40.1884 139.065 41.9547C140.41 42.4931 141.633 44.9315 141.254 46.3292C140.018 50.8787 138.194 60.7307 138.043 79.4984C137.814 108.004 132.576 128.299 100.354 144.014C74.9688 156.395 47.0345 149.407 38.5262 131.962C32.7524 120.124 32.5372 109.782 33.4008 103.121C33.9514 98.8746 31.6169 94.0883 27.9315 91.9076C22.151 88.4873 14.1339 81.9506 8.36011 70.1125Z" fill="url(#paint1_linear_106_9327)"/>
<path d="M8.36011 70.1125C-0.14828 52.6678 11.5428 26.3528 36.9279 13.9715C69.1495 -1.74404 88.784 6.44461 110.971 23.9923C125.662 35.6117 134.655 40.1884 139.065 41.9547C140.41 42.4931 141.633 44.9315 141.254 46.3292C140.018 50.8787 138.194 60.7307 138.043 79.4984C137.814 108.004 132.576 128.299 100.354 144.014C74.9688 156.395 47.0345 149.407 38.5262 131.962C32.7524 120.124 32.5372 109.782 33.4008 103.121C33.9514 98.8746 31.6169 94.0883 27.9315 91.9076C22.151 88.4873 14.1339 81.9506 8.36011 70.1125Z" fill="url(#paint2_radial_106_9327)"/>
<path d="M8.36011 70.1125C-0.14828 52.6678 11.5428 26.3528 36.9279 13.9715C69.1495 -1.74404 88.784 6.44461 110.971 23.9923C125.662 35.6117 134.655 40.1884 139.065 41.9547C140.41 42.4931 141.633 44.9315 141.254 46.3292C140.018 50.8787 138.194 60.7307 138.043 79.4984C137.814 108.004 132.576 128.299 100.354 144.014C74.9688 156.395 47.0345 149.407 38.5262 131.962C32.7524 120.124 32.5372 109.782 33.4008 103.121C33.9514 98.8746 31.6169 94.0883 27.9315 91.9076C22.151 88.4873 14.1339 81.9506 8.36011 70.1125Z" fill="url(#paint3_radial_106_9327)"/>
</g>
<defs>
<filter id="filter0_g_106_9327" x="0.00052166" y="3.33786e-05" width="146.932" height="155.887" filterUnits="userSpaceOnUse" color-interpolation-filters="sRGB">
<feFlood flood-opacity="0" result="BackgroundImageFix"/>
<feBlend mode="normal" in="SourceGraphic" in2="BackgroundImageFix" result="shape"/>
<feTurbulence type="fractalNoise" baseFrequency="2.1398472785949707 2.1398472785949707" numOctaves="3" seed="1322" />
<feDisplacementMap in="shape" scale="11.215753555297852" xChannelSelector="R" yChannelSelector="G" result="displacedImage" width="100%" height="100%" />
<feMerge result="effect1_texture_106_9327">
<feMergeNode in="displacedImage"/>
</feMerge>
</filter>
<linearGradient id="paint0_linear_106_9327" x1="83.0785" y1="72.3688" x2="51.1202" y2="6.84454" gradientUnits="userSpaceOnUse">
<stop stop-color="#37BC69" stop-opacity="0"/>
<stop offset="1" stop-color="#7DD49F"/>
</linearGradient>
<linearGradient id="paint1_linear_106_9327" x1="83.0785" y1="72.3688" x2="114.8" y2="136.969" gradientUnits="userSpaceOnUse">
<stop stop-color="#37BC69" stop-opacity="0"/>
<stop offset="1" stop-color="#7DD49F"/>
</linearGradient>
<radialGradient id="paint2_radial_106_9327" cx="0" cy="0" r="1" gradientUnits="userSpaceOnUse" gradientTransform="translate(124.834 52.0032) rotate(-26) scale(129.916 129.916)">
<stop stop-color="#FED4AA"/>
<stop offset="1" stop-color="#59C783" stop-opacity="0"/>
</radialGradient>
<radialGradient id="paint3_radial_106_9327" cx="0" cy="0" r="1" gradientUnits="userSpaceOnUse" gradientTransform="translate(142.895 43.1941) rotate(-26) scale(31.3106 33.8941)">
<stop stop-color="white"/>
<stop offset="1" stop-color="#D5D09E" stop-opacity="0"/>
</radialGradient>
</defs>
</svg>
